/* XPM */
static char *_05fa534e86d43da9b6afe8b75af8477ksDuWkSP4y9HdWoA[] = {
/* columns rows colors chars-per-pixel */
"16 16 6 1 ",
"  c #70788A",
". c #7A8498",
"X c #7F8798",
"o c #8890A1",
"O c #8991A2",
"+ c #8A92A3",
/* pixels */
"..........  ....",
"......OOo.   ...",
" .....OOX    ...",
"  ......     ...",
"  OO...      ...",
" XOO..      ....",
"OOOO..     ..oO.",
"OOO....   ...ooO",
".    .......oooo",
"      .......oo.",
"       ....  ...",
".       ..    ..",
"OO........    ..",
"O.........    ..",
"...........   ..",
"............  .."
};
