/* XPM */
static char *result[] = {
/* columns rows colors chars-per-pixel */
"16 16 240 2 ",
"   c #020303",
".  c #030404",
"X  c #040404",
"o  c #040504",
"O  c #050504",
"+  c #040405",
"@  c gray2",
"#  c #050605",
"$  c #060605",
"%  c #050506",
"&  c #050606",
"*  c #060606",
"=  c #060706",
"-  c #0B0805",
";  c #0B0806",
":  c #070808",
">  c gray3",
",  c #090909",
"<  c #110B07",
"1  c #120B09",
"2  c #130C09",
"3  c #120F0C",
"4  c #140F0C",
"5  c #12100E",
"6  c #17100D",
"7  c #16110D",
"8  c #1A100B",
"9  c #19110E",
"0  c #18120E",
"q  c #1B120F",
"w  c #1B130F",
"e  c #1C120F",
"r  c #1C130F",
"t  c #1C140F",
"y  c #1D140F",
"u  c #121113",
"i  c #131417",
"p  c #171716",
"a  c #1B1310",
"s  c #1C1310",
"d  c #1C1511",
"f  c #1F1510",
"g  c #1E1A17",
"h  c #131518",
"j  c #141518",
"k  c #141619",
"l  c #171818",
"z  c #16181C",
"x  c #181818",
"c  c #191B1F",
"v  c #22160D",
"b  c #22160E",
"n  c #23160E",
"m  c #23170F",
"M  c #25170F",
"N  c #26180E",
"B  c #211411",
"V  c #201712",
"C  c #221614",
"Z  c #201811",
"A  c #231810",
"S  c #211812",
"D  c #251810",
"F  c #261810",
"G  c #231A14",
"H  c #231B14",
"J  c #241B14",
"K  c #271A14",
"L  c #261B14",
"P  c #2C1C13",
"I  c #201C18",
"U  c #231E19",
"Y  c #2E2117",
"T  c #2D211B",
"R  c #2F241E",
"E  c #322015",
"W  c #3A2417",
"Q  c #302119",
"!  c #322219",
"~  c #31221A",
"^  c #372218",
"/  c #31231C",
"(  c #37261C",
")  c #3D2418",
"_  c #3E2618",
"`  c #3E261A",
"'  c #1A1C21",
"]  c #1B1D21",
"[  c #1F2020",
"{  c #212123",
"}  c #222223",
"|  c gray14",
" . c #272726",
".. c #282522",
"X. c #25282E",
"o. c #292828",
"O. c gray16",
"+. c #2A2929",
"@. c #292A2A",
"#. c #2A2A2A",
"$. c #2D2828",
"%. c #2D2B29",
"&. c #2F2D2A",
"*. c #2C2C2D",
"=. c #2E2E2D",
"-. c #2F2F2E",
";. c #2F2F2F",
":. c #312927",
">. c #3D2B20",
",. c #3D2B21",
"<. c #332C28",
"1. c #37302C",
"2. c #36322E",
"3. c #3C312B",
"4. c #3D322A",
"5. c #3C332F",
"6. c #353637",
"7. c #383230",
"8. c #31343B",
"9. c #373738",
"0. c #33363D",
"q. c #38383C",
"w. c #3F3D3C",
"e. c #402D24",
"r. c #473227",
"t. c #4A3325",
"y. c #46372B",
"u. c #493228",
"i. c #4A392B",
"p. c #50372C",
"a. c #413830",
"s. c #423A33",
"d. c #403934",
"f. c #403936",
"g. c #463C34",
"h. c #453D37",
"j. c #463D37",
"k. c #483E38",
"l. c #5B3F31",
"z. c #47403C",
"x. c #47403D",
"c. c #534131",
"v. c #5D4233",
"b. c #5C4134",
"n. c #5D4436",
"m. c #5E4935",
"M. c #544439",
"N. c #634131",
"B. c #614535",
"V. c #634435",
"C. c #614436",
"Z. c #644635",
"A. c #654735",
"S. c #664837",
"D. c #684937",
"F. c #61483A",
"G. c #694A39",
"H. c #6E4D3A",
"J. c #6F4E3B",
"K. c #6E4F3C",
"L. c #744E3A",
"P. c #704F3C",
"I. c #73503C",
"U. c #76513F",
"Y. c #75523E",
"T. c #74533F",
"R. c #75533F",
"E. c #78533F",
"W. c #7D543E",
"Q. c #383B43",
"!. c #3B4049",
"~. c #3D4048",
"^. c #454243",
"/. c #4C4541",
"(. c #494647",
"). c #4C4746",
"_. c #40434C",
"`. c #41454E",
"'. c #4A494D",
"]. c #5B4E44",
"[. c #504C49",
"{. c #55504F",
"}. c #5D534E",
"|. c #454850",
" X c #4F4D50",
".X c #4D4E57",
"XX c #535152",
"oX c #515257",
"OX c #585555",
"+X c #5C5859",
"@X c #625145",
"#X c #685341",
"$X c #63554B",
"%X c #6E5C4F",
"&X c #795540",
"*X c #745C49",
"=X c #6F5F51",
"-X c #625D5D",
";X c #736152",
":X c #746152",
">X c #706155",
",X c #706156",
"<X c #766354",
"1X c #706358",
"2X c #786658",
"3X c #7B6B5E",
"4X c #555861",
"5X c #555963",
"6X c #5C5C61",
"7X c #5D5C61",
"8X c #5C5D65",
"9X c #5B5E68",
"0X c #5A5F6B",
"qX c #6F6867",
"wX c #64656A",
"eX c #6B6A6F",
"rX c #716762",
"tX c #716B6A",
"yX c #736E6E",
"uX c #656872",
"iX c #6F6E74",
"pX c #676D7A",
"aX c #787374",
"sX c #76767D",
"dX c #9D7054",
"fX c #6B7282",
"gX c #6B7384",
"hX c #6F7789",
"jX c #757882",
"kX c #787981",
"lX c #707788",
"zX c #767D8D",
"xX c #798091",
"cX c #7A8395",
"vX c #798396",
"bX c #798397",
"nX c #7A8396",
"mX c #7A8498",
"MX c #80828B",
"NX c #848C9D",
/* pixels */
"nXxXcXmXbXbXbXvXvXvXhXlXvXmXmXmX",
"yX,XsXzX1XtXkXNXMXrXgXqXiXbX>XjX",
"5X#X=X5 <X@XU :X;X%Xg ].2X3X$XI ",
"fX`.E.U.Q.8.~.0.|.4X9XT.Y.K.9.aX",
"uX-.n.I.i j X.k c !._.C.dXF.6.}.",
"q.=.b._ ' z h k z ] u p.v.` ;.*X",
"oXO.r.W G.D.S.Z.V.B.A.u.W.) #.+X",
"OX .,.E l.&XY.J.H.P.R.e.L.^ *.m.",
".X@.~ N D M m n b n A / N.Q o.i.",
"pX{ H 8 > + % = & o , C t.P +.8X",
"&.l s 2 & O @ * # X : 6 ( F | c.",
"$.p q < e a w y r 9 0 4 Y v [ 3 ",
"[.x d 1 t G J L K V S 7 ! B } wX",
"2...T f $ . - ; O   o Z >.R f.y.",
"%.h.7.g.<.3.1.a.:.4.5.s.j.M.k.0X",
"eX'.{.z.7Xx.). X6Xw.d.^.XX(./.-X"
};
