/* XPM */
static char *_469e9509a124caec7d05988f3dbcaf5uU4rv5hJg1xbqnxf[] = {
/* columns rows colors chars-per-pixel */
"16 16 25 1 ",
"  c #702919",
". c #7B2B1A",
"X c #434450",
"o c #434551",
"O c #444551",
"+ c #525770",
"@ c #565B75",
"# c #5F646C",
"$ c #656B75",
"% c #6E737B",
"& c #AA3B24",
"* c #C64024",
"= c #DB5539",
"- c #F38068",
"; c #70788A",
": c #7A8498",
"> c #7F8798",
", c #8890A1",
"< c #8991A2",
"1 c #9AA1D2",
"2 c #AFB2D1",
"3 c #B3B7D7",
"4 c #B7B9E2",
"5 c #CECFEB",
"6 c #E0E1F3",
/* pixels */
"::::::::::;;::::",
"::::::<,,:;;;:::",
";:::::&&&&;;;:::",
";;:::&--==&;;:::",
";;<<&--====.;:::",
";><&======**.:::",
"<<<&*==oX***.,<:",
"<<<@ *o65X* o%,<",
":;;+2 o54o 4o%,,",
";;;#+23oo11o$%,:",
";;;;#X2311o##:::",
":;;;;#XXoo##;;::",
"<<::::$$$$#;;;::",
"<:::::::::;;;;::",
":::::::::::;;;::",
"::::::::::::;;::"
};
