/* XPM */
static char *result[] = {
/* columns rows colors chars-per-pixel */
"16 16 18 1 ",
"  c black",
". c #282838",
"X c #384040",
"o c #784040",
"O c #486060",
"+ c #C03838",
"@ c #B87020",
"# c #F06848",
"$ c #F8B020",
"% c #D8A078",
"& c #70788A",
"* c #7A8498",
"= c #9088A8",
"- c #8890A1",
"; c #8991A2",
": c #F8D0B8",
"> c #B8B0D0",
", c #E8E8F8",
/* pixels */
"*****X@@@@X&****",
"** XOO$$$$OOX **",
"&* OO$$$$$$OO **",
"& XOO$$$$$$OOX *",
"& XXO$$$$$$OXX *",
"& XXX@$$$$@XXX *",
" % .XX@@@@XX. % ",
" % O..XXXX..O % ",
"*&  XOOOOOOX  --",
"&&&          --*",
"&& #.XX>>XX.# **",
"* +#+oooX,=o#+ *",
"o:oX+o X,>> Xo:o",
";  O  =>OO  O  *",
"*** OO OO OO &**",
"****  ****  &&**"
};
