/* XPM */
static char *result[] = {
/* columns rows colors chars-per-pixel */
"16 16 23 1 ",
"  c #0F141F",
". c #101520",
"X c #2F343F",
"o c #2A3345",
"O c #303540",
"+ c #3D4658",
"@ c #404550",
"# c #414651",
"$ c #424752",
"% c #5D626D",
"& c #5E636E",
"* c #5F646C",
"= c #656B75",
"- c #6E737B",
"; c #6E747B",
": c #6D727D",
"> c #70788A",
", c #7A8498",
"< c #7F8798",
"1 c #828792",
"2 c #838893",
"3 c #8991A2",
"4 c #9398A3",
/* pixels */
",,,,,,,,,,>>,,,,",
",,,,,,$$##$#>,,,",
">,,,##41:::1@,,,",
">>,$44441:::1$,,",
">>O24441::11:#,,",
"><X41:::14441&X,",
"3X4441&:1414&%X,",
"3X&441&&:14&&&.;",
",X$&&&&&&&&&&$.-",
">X$&&&$&&&$&&X.=",
"> ##&$$$&$#&#X.=",
", ##&$$$$$$#X.=,",
"3; o#++++++oX.=,",
"3,= oooooooX.*,,",
",,,=      ..*>,,",
",,,,========>>,,"
};
