/* XPM */
static char *_9752d80a3bc47da98ae9f8a024dbdbeA7ZuhKvEbRtoeDKm[] = {
/* columns rows colors chars-per-pixel */
"15 15 16 1 ",
"  c None",
". c #0F141F",
"X c #101520",
"o c #2F343F",
"O c #2A3345",
"+ c #303540",
"@ c #3D4658",
"# c #404550",
"$ c #414651",
"% c #424752",
"& c #5D626D",
"* c #5E636E",
"= c #6D727D",
"- c #828792",
"; c #838893",
": c #9398A3",
/* pixels */
"     %%%%%%    ",
"   %%:-===-%   ",
"  %::::-===-%  ",
" +;:::-==--=%  ",
" o:-===-:::-*o ",
"o:::-*=-:-:**o ",
"o*::-**=-:***X ",
"o%**********%X ",
"o%***%***%**oX ",
".%%*%%%*%%*%oX ",
".%%*%%%%%%%oX  ",
" .O%@@@@@@OoX  ",
"  .OOOOOOOoX   ",
"   ......XX    ",
"               "
};
